# xmcd
#
# Track frame offsets:
#	150
#	19375
#	45205
#
# Disc length: 889 seconds
#
# Revision: 0
# Processed by: cddbd v1.4PL0 Copyright (c) Steve Scherf et al.
# Submitted via: dBpowerAMP V4.0
#
DISCID=19037703
DTITLE=Counting Crows - Rain King 
DYEAR=1994
DGENRE=Blues
TTITLE0=Rain King (LP Version)
TTITLE1=A Murder Of One (LP Version)
TTITLE2=Mr. Jones (Acoustic)
EXTD=
EXTT0=
EXTT1=
EXTT2=
PLAYORDER=
